:version 1.10
:name ASF
:units
  mass 1
  length 1
  angle deg
:documentation
  ASF file generated by Kaydara
:root
  axis xyz
  order  tx ty tz rx ry rz
  position 0 0 0
  orientation 0 0 0
:bonedata
  begin
    id 1
    name LeftUpLegDummy
    direction 1 -2.30186e-007 -8.31532e-007
    length 2.93387
    axis 0 0 0 xyz
  end
  begin
    id 2
    name LeftUpLeg
    direction -1.82929e-007 -1 -1.48925e-009
    length 17.3336
    axis -3.48766 0.00143442 -0.000521554 xyz
    dof rx ry rz
  end
  begin
    id 3
    name LeftLeg
    direction -1.82929e-007 -1 -5.23717e-011
    length 14.9995
    axis 3.68178 -0.00654042 -0.000282425 xyz
    dof rx ry rz
  end
  begin
    id 4
    name LeftFoot
    direction 8.31532e-007 -4.54534e-011 1
    length 6.74421
    axis 1.87234e-006 4.66016e-005 -5.96866e-006 xyz
    dof rx ry rz
  end
  begin
    id 5
    name LeftToes
    direction 0.00818058 -0.00485161 0.999955
    length 3.85048
    axis 1.06247e-005 4.65869e-005 -5.96999e-006 xyz
    dof rx ry rz
  end
  begin
    id 6
    name SpineDummy
    direction -5.8607e-008 0.943407 -0.331637
    length 5.93572
    axis 0 0 0 xyz
  end
  begin
    id 7
    name Spine
    direction -1.04988e-007 0.999988 0.00495137
    length 10.1015
    axis -0.001389 0.000121417 6.61666e-006 xyz
    dof rx ry rz
  end
  begin
    id 8
    name Spine1
    direction 0 0 0
    length 0
    axis -0.001389 0.00012144 6.56766e-006 xyz
    dof rx ry rz
  end
  begin
    id 9
    name RightShoulderDummy
    direction -0.98348 0.17941 -0.0240696
    length 3.59882
    axis -0.001389 0.00012144 6.56766e-006 xyz
  end
  begin
    id 10
    name RightShoulder
    direction -0.978693 0.204882 0.0135597
    length 2.70001
    axis 0.215806 0.000203631 -0.00679732 xyz
    dof rx ry rz
  end
  begin
    id 11
    name RightArm
    direction -1 3.85509e-006 8.31394e-007
    length 10.2459
    axis -23.2009 -0.134239 -0.964098 xyz
    dof rx ry rz
  end
  begin
    id 12
    name RightForeArm
    direction -1 3.85569e-006 8.3129e-007
    length 8.16799
    axis -9.92322 0.0658061 0.17887 xyz
    dof rx ry rz
  end
  begin
    id 13
    name RightHand
    direction -0.992843 -0.0414604 0.112003
    length 5.28593
    axis -0.00960638 0.00330669 -0.185225 xyz
    dof rx ry rz
  end
  begin
    id 14
    name LeftShoulder1Dummy
    direction 0.983523 0.179172 -0.0240748
    length 3.59866
    axis -0.001389 0.00012144 6.56766e-006 xyz
  end
  begin
    id 15
    name LeftShoulder1
    direction 0.978627 0.205195 0.0135605
    length 2.70019
    axis -0.001389 0.00012144 6.57583e-006 xyz
    dof rx ry rz
  end
  begin
    id 16
    name LeftArm
    direction 1 3.51895e-006 -8.60188e-007
    length 10.2459
    axis -23.1894 0.134785 0.967513 xyz
    dof rx ry rz
  end
  begin
    id 17
    name LeftForeArm
    direction 1 3.51921e-006 -7.32029e-007
    length 8.16799
    axis -9.91835 -0.0656957 -0.177789 xyz
    dof rx ry rz
  end
  begin
    id 18
    name LeftHand
    direction 0.992938 -0.0411636 0.11126
    length 5.32135
    axis -0.00960237 -0.00340661 0.185177 xyz
    dof rx ry rz
  end
  begin
    id 19
    name HEadDummy
    direction 1.01974e-006 0.999861 -0.016675
    length 2.99946
    axis -0.001389 0.00012144 6.56766e-006 xyz
  end
  begin
    id 20
    name HEad
    direction -0.0222689 0.980941 0.193023
    length 5.12695
    axis -0.001389 0.00012144 6.56766e-006 xyz
    dof rx ry rz
  end
  begin
    id 21
    name RightUpLegDummy
    direction -1 2.30186e-007 8.31532e-007
    length 2.93387
    axis 0 0 0 xyz
  end
  begin
    id 22
    name RightUpLeg
    direction -1.82966e-007 -1 1.56832e-007
    length 17.3336
    axis -3.4909 -0.000906625 0.00028951 xyz
    dof rx ry rz
  end
  begin
    id 23
    name RightLeg
    direction -1.82786e-007 -1 -1.80317e-007
    length 14.9995
    axis 3.68513 0.0193739 -0.131021 xyz
    dof rx ry rz
  end
  begin
    id 24
    name RightFoot
    direction 8.31721e-007 -4.63324e-011 1
    length 6.74421
    axis 4.81691e-005 -0.120479 -0.188785 xyz
    dof rx ry rz
  end
  begin
    id 25
    name RightToes
    direction 0.00124746 -0.014064 0.9999
    length 3.85082
    axis 0.000481921 0.542163 -0.142575 xyz
    dof rx ry rz
  end
:hierarchy
  begin
    root LeftUpLegDummy SpineDummy RightUpLegDummy
    LeftUpLegDummy LeftUpLeg
    LeftUpLeg LeftLeg
    LeftLeg LeftFoot
    LeftFoot LeftToes
    SpineDummy Spine
    Spine Spine1
    Spine1 RightShoulderDummy LeftShoulder1Dummy HEadDummy
    RightShoulderDummy RightShoulder
    RightShoulder RightArm
    RightArm RightForeArm
    RightForeArm RightHand
    LeftShoulder1Dummy LeftShoulder1
    LeftShoulder1 LeftArm
    LeftArm LeftForeArm
    LeftForeArm LeftHand
    HEadDummy HEad
    RightUpLegDummy RightUpLeg
    RightUpLeg RightLeg
    RightLeg RightFoot
    RightFoot RightToes
  end

:SAMPLES-PER-SECOND 30
:FULLY-SPECIFIED
:DEGREES
125
root  2.24523 34.5126 20.0296 6.26867 23.9193 -0.541247
LeftUpLeg  -10.0386 9.9388 2.60634
LeftLeg  11.566 6.69885 0.924137
LeftFoot  2.23276 -0.00536748 0.275431
LeftToes  -14.0273 1.92152e-006 4.03786e-008
Spine  2.61438 2.5211 -0.989856
Spine1  4.83421 5.51972 -2.46239
RightShoulder  0.0709306 4.04093 2.78771
RightArm  -6.39884 -4.69155 54.5326
RightForeArm  74.6425 79.5334 74.6809
RightHand  2.37393 -14.2989 -18.381
LeftShoulder1  0.00301663 0.120413 -8.0537
LeftArm  -26.4701 25.0219 -65.4088
LeftForeArm  27.3716 -22.4356 -4.16738
LeftHand  0.0596909 2.46686 2.57395
HEad  -10.3295 -25.6029 3.95152
RightUpLeg  -10.9384 -12.4404 -5.4808
RightLeg  11.2044 7.19907 0.949978
RightFoot  5.04008 -0.0135945 0.686337
RightToes  -31.3536 -0.153352 -0.261263
126
root  2.01234 34.5343 20.198 5.7892 25.6381 -1.04198
LeftUpLeg  -10.3103 9.31631 3.61079
LeftLeg  12.2915 5.72026 0.863175
LeftFoot  2.47572 -0.00230795 0.251322
LeftToes  -14.9185 1.92152e-006 4.03786e-008
Spine  2.43739 2.4333 -0.984227
Spine1  4.54088 5.24989 -2.37082
RightShoulder  0.0622964 5.02879 2.97209
RightArm  -7.90713 -5.18382 50.7571
RightForeArm  30.6853 68.1992 26.3313
RightHand  2.50968 -13.0275 -21.3395
LeftShoulder1  0.00204448 0.295468 -8.29816
LeftArm  -26.5128 23.4905 -65.1128
LeftForeArm  27.9872 -19.9705 -3.66631
LeftHand  0.062158 2.51463 2.45477
HEad  -9.3254 -26.262 4.8333
RightUpLeg  -9.54289 -11.0799 -4.72656
RightLeg  9.72578 4.36044 0.462747
RightFoot  5.37731 -0.0027219 0.435453
RightToes  -31.2706 -0.152579 -0.260525
127
root  1.72991 34.5188 20.3164 5.10414 26.9882 -1.32245
LeftUpLeg  -10.4773 8.70704 4.45121
LeftLeg  13.2342 5.09569 0.854793
LeftFoot  2.59614 0.000927495 0.229618
LeftToes  -15.8049 1.92152e-006 4.03786e-008
Spine  2.50792 2.65459 -0.98707
Spine1  4.65788 5.69642 -2.39615
RightShoulder  0.0728994 7.27803 4.4143
RightArm  -22.4593 -1.9081 53.146
RightForeArm  15.0921 47.3004 11.0337
RightHand  2.02594 -13.9198 -16.1057
LeftShoulder1  0.00132654 0.35915 -8.95846
LeftArm  -26.59 21.5008 -64.519
LeftForeArm  27.5295 -18.4447 -3.36475
LeftHand  0.0730433 2.63204 2.80136
HEad  -8.51194 -27.4208 5.41356
RightUpLeg  -8.84458 -9.913 -4.15368
RightLeg  9.95278 2.19428 0.242409
RightFoot  4.89502 0.00728273 0.207135
RightToes  -31.0314 -0.151087 -0.25907
128
root  1.37544 34.4571 20.3777 4.55605 26.9048 -1.40052
LeftUpLeg  -10.652 8.79585 5.15501
LeftLeg  14.3282 5.11951 0.959355
LeftFoot  2.53197 0.00302114 0.227886
LeftToes  -16.824 1.92152e-006 4.03786e-008
Spine  2.61097 2.98807 -0.876646
Spine1  4.77891 6.45426 -2.28465
RightShoulder  0.10271 9.31509 7.17049
RightArm  -35.6061 1.93715 56.0169
RightForeArm  15.9898 35.955 7.3482
RightHand  2.81604 -12.8691 -24.2083
LeftShoulder1  0.000842106 0.0716074 -9.88116
LeftArm  -26.3305 20.9999 -63.8473
LeftForeArm  25.1434 -18.3772 -3.35235
LeftHand  0.0889226 2.69243 3.40378
HEad  -7.14451 -27.9928 4.11589
RightUpLeg  -8.96277 -8.46742 -3.59911
RightLeg  10.9725 1.04799 0.135325
RightFoot  3.90674 0.0143805 0.10161
RightToes  -30.4014 -0.146694 -0.254746
129
root  0.989637 34.3746 20.4015 4.38493 25.5289 -1.55849
LeftUpLeg  -10.7068 9.27728 5.89008
LeftLeg  14.7112 6.08542 1.18203
LeftFoot  2.5279 0.00125085 0.285518
LeftToes  -17.9698 1.92152e-006 4.03786e-008
Spine  2.7596 3.17523 -0.606188
Spine1  5.06271 6.89632 -1.78529
RightShoulder  0.111993 8.04215 7.01628
RightArm  -28.8331 1.15526 61.2237
RightForeArm  18.681 47.0528 10.9395
RightHand  3.74085 -14.4658 -28.4781
LeftShoulder1  0.000570439 0.239556 -10.5679
LeftArm  -25.2471 21.3686 -63.8266
LeftForeArm  23.0794 -19.3523 -3.54475
LeftHand  0.0988711 2.43579 4.26602
HEad  -7.24269 -26.9608 1.92997
RightUpLeg  -9.54176 -8.25612 -2.79153
RightLeg  11.5164 2.19251 0.302809
RightFoot  2.91711 0.013162 0.160176
RightToes  -28.8287 -0.135939 -0.243743
